<svg preserveAspectRatio="xMidYMid meet" data-bbox="-0.221 161.165 5399.691 644.836" xmlns="http://www.w3.org/2000/svg" viewBox="-0.221 161.165 5399.691 644.836" height="967" width="5461" data-type="color" role="presentation" aria-hidden="true" aria-label="">
    <g>
        <g clip-path="url(#74be285e-090f-4d12-9e85-5653625d976c_comp-luroui21_r_comp-luroie6a)">
            <path fill="#ffffff" d="M575.79 171.834c-9.287-2.433-19.016 1.769-23.659 10.171L295.634 651.216 39.359 182.226c-4.644-8.402-14.373-12.604-23.66-10.171-9.287 2.432-15.92 10.834-15.92 20.343v571.588c0 11.499 9.508 21.007 21.006 21.007H63.24c11.498 0 21.006-9.508 21.006-21.007V442.481L277.06 789.194c3.759 6.633 10.835 10.835 18.353 10.835 7.518 0 14.594-4.202 18.353-10.835l193.257-346.713v321.505c0 11.499 9.508 21.007 21.006 21.007h42.454c11.499 0 21.007-9.508 21.007-21.007v-571.81c0-9.508-6.413-17.91-15.7-20.342Z" data-color="1"></path>
            <path fill="#ffffff" d="M1308.13 191.293H871.867c-11.499 0-21.007 9.508-21.007 21.006v550.804c0 11.498 9.508 21.006 21.007 21.006h436.263c11.5 0 21.01-9.508 21.01-21.006v-42.455c0-11.498-9.51-21.006-21.01-21.006H935.106V537.121h346.054c11.49 0 21-9.508 21-21.006v-42.013c0-11.498-9.51-21.006-21-21.006H935.106V275.76h373.024c11.5 0 21.01-9.508 21.01-21.006v-42.455c0-11.498-9.51-21.006-21.01-21.006Z" data-color="1"></path>
            <path fill="#ffffff" d="M1970.38 537.564c29.85-38.253 44.89-82.477 44.89-131.123 0-28.745-5.53-57.048-16.59-83.582-10.83-25.65-26.31-48.425-45.99-67.662-19.46-19.901-42.46-35.379-68.1-46.214-26.32-11.055-54.4-16.583-83.15-16.583h-234.16c-11.5 0-21 9.508-21 21.006v549.919c0 11.498 9.5 21.006 21 21.006h42.46c11.49 0 21-9.508 21-21.006V620.704h161.42l129.57 156.109c3.98 4.865 9.95 7.518 16.14 7.518h54.62c8.18 0 15.48-4.643 19.02-12.161 3.53-7.297 2.43-16.142-2.88-22.333l-122.05-146.822c32.94-14.152 61.02-36.042 83.8-65.009v-.442Zm-339.86-261.582h170.7c17.25 0 34.28 3.538 50.42 10.393 15.7 6.633 29.63 15.92 41.35 27.639 11.94 12.162 21.45 26.313 28.08 41.57 6.85 16.142 10.17 33.168 10.17 50.636 0 17.469-3.54 34.274-10.17 50.194-6.63 15.478-16.14 29.409-27.86 41.57-11.94 11.94-25.87 21.227-41.57 27.861-16.14 6.855-32.95 10.392-50.42 10.392h-170.7V275.982Z" data-color="1"></path>
            <path fill="#ffffff" d="M2744.07 585.545h-47.1c-7.74 0-15.03 4.423-18.57 11.277-15.48 29.63-35.16 53.953-60.81 74.075-42.9 34.052-89.99 50.415-144.39 50.415-64.79 0-118.74-22.333-164.51-68.105-45.77-45.992-68.11-99.724-68.11-164.511 0-64.787 22.34-118.74 68.11-164.512 45.77-45.771 99.72-68.104 164.51-68.104 54.4 0 101.71 16.584 144.39 50.636 24.54 19.459 43.78 42.676 59.26 70.979 3.76 6.855 10.83 11.056 18.57 11.056h47.32c7.08 0 13.71-3.538 17.69-9.508 3.98-5.97 4.42-13.488 1.55-19.901-19.9-45.108-49.31-83.803-87.34-115.423-58.38-47.983-126.04-72.085-201.22-72.085-87.12 0-162.52 31.399-224.43 93.091-61.69 61.471-92.87 136.872-92.87 223.992 0 87.12 31.18 162.3 92.87 223.992C2310.9 774.822 2386.3 806 2473.42 806c75.4 0 143.06-24.323 201.22-72.085 39.36-32.504 69.21-72.526 89.11-118.961 2.87-6.412 1.99-13.93-1.77-19.901-3.76-5.97-10.39-9.508-17.47-9.508h-.44Z" data-color="1"></path>
            <path fill="#ffffff" d="M3213.28 171.612c-7.3-13.93-30.07-13.93-37.37 0L2876.3 753.594c-3.32 6.412-3.1 14.372.66 20.564 3.76 6.191 10.61 10.171 17.91 10.171h47.32c7.96 0 15.04-4.422 18.57-11.277l65.01-126.037h337.21l65.01 126.037c3.53 7.076 10.83 11.277 18.57 11.277h47.32c7.3 0 14.15-3.759 17.91-10.171 3.76-6.192 4.2-13.931.66-20.564l-299.17-581.982Zm106.8 390.936h-250.75l125.38-243.45 125.37 243.45Z" data-color="1"></path>
            <path fill="#ffffff" d="M4017.26 192.178h-446.43c-11.5 0-21.01 9.508-21.01 21.006v42.013c0 11.498 9.51 21.006 21.01 21.006h181.09v486.901c0 11.498 9.51 21.006 21.01 21.006h42.01c11.5 0 21.01-9.508 21.01-21.006V275.982h181.09c11.5 0 21.01-9.508 21.01-21.006v-42.013c0-11.498-9.51-21.006-21.01-21.006l.22.221Z" data-color="1"></path>
            <path fill="#ffffff" d="M4455.3 171.171c-86.9 0-162.52 31.398-224.44 93.09-61.69 61.692-92.87 136.872-92.87 223.992 0 87.121 31.18 162.301 92.87 223.992 61.92 61.913 137.32 93.091 224.44 93.091s162.52-31.399 223.99-93.091c61.91-61.47 93.31-136.871 93.31-223.992 0-87.12-31.4-162.521-93.09-223.992-61.69-61.913-136.87-93.09-223.99-93.09h-.22Zm-232.62 317.303c0-64.787 22.34-118.74 68.11-164.511 45.99-45.993 99.72-68.104 164.51-68.104 64.79 0 118.74 22.333 164.51 68.104 45.77 45.992 68.1 99.724 68.1 164.511 0 64.788-22.33 118.741-68.1 164.512-45.77 45.771-99.72 68.104-164.51 68.104-64.79 0-118.74-22.333-164.51-68.104-46-45.993-68.11-99.724-68.11-164.512Z" data-color="1"></path>
            <path fill="#ffffff" d="M5270.78 602.572c32.95-14.151 61.03-36.042 83.8-65.008 29.85-38.253 44.89-82.477 44.89-131.123 0-28.745-5.53-56.827-16.58-83.582-10.84-25.65-26.32-48.425-46-67.883-19.45-19.901-42.45-35.379-68.1-46.214-26.31-11.056-54.4-16.584-83.14-16.584h-234.16c-11.5 0-21.01 9.508-21.01 21.006v549.92c0 11.498 9.51 21.006 21.01 21.006h42.45c11.5 0 21.01-9.508 21.01-21.006V620.483h161.19l129.58 156.109c3.98 4.865 9.95 7.518 16.14 7.518h54.61c8.18 0 15.48-4.644 19.02-12.162 3.54-7.296 2.43-16.141-2.87-22.332l-122.06-146.822.22-.222Zm-256.05-66.114V275.982h170.7c17.25 0 34.27 3.538 50.41 10.171 15.7 6.634 29.63 15.921 41.35 27.64 11.94 12.161 21.45 26.313 28.08 41.57 6.86 15.92 10.18 33.168 10.18 50.636 0 17.468-3.54 34.273-10.18 50.194-6.63 15.478-16.14 29.408-27.86 41.57-11.94 11.94-25.87 21.227-41.57 27.861-16.14 6.854-32.94 10.171-50.41 10.171h-170.7v.663Z" data-color="1"></path>
        </g>
        <defs fill="none">
            <clipPath id="74be285e-090f-4d12-9e85-5653625d976c_comp-luroui21_r_comp-luroie6a">
                <path transform="translate(0 161)" fill="#ffffff" d="M5399.47 0v645H0V0h5399.47z"></path>
            </clipPath>
        </defs>
    </g>
</svg>